<?xml version="1.0" encoding="utf-8"?>
<!-- Generator: Adobe Illustrator 24.3.0, SVG Export Plug-In . SVG Version: 6.00 Build 0)  -->
<svg version="1.1" id="Calque_1" xmlns="http://www.w3.org/2000/svg" xmlns:xlink="http://www.w3.org/1999/xlink" x="0px" y="0px"
	 viewBox="0 0 360 360" style="enable-background:new 0 0 360 360;" xml:space="preserve">
<style type="text/css">
	.st0{fill:#FFFFFF;}
</style>
<rect width="360" height="360"/>
<path class="st0" d="M228.29,138.45c0-25.17-17.3-39.06-37.75-39.06h-21.24v78.39h22.81C219.64,177.77,228.29,156.8,228.29,138.45z
	 M259.23,136.61c0,33.29-24.38,52.96-61.87,52.96h-28.05v49.81c0,20.45,4.72,24.38,24.91,24.38v7.34h-77.6v-7.34
	c20.19,0,24.64-3.93,24.64-24.38V119.57c0-20.19-4.46-24.38-24.64-24.38v-7.08h84.42C234.32,88.11,259.23,106.73,259.23,136.61z"/>
</svg>
